{"glyphs":{":":{"x_min":0,"x_max":265,"ha":265,"o":"m 60 0 l 89 145 l 233 145 l 205 0 z m 138 392 l 167 536 l 312 536 l 283 392 z"},"$":{"x_min":0,"x_max":636,"ha":636,"o":"m 291 -78 l 307 0 q 189 7 125 28 l 152 168 l 219 168 l 217 160 l 215 133 q 212 109 212 106 q 212 59 314 45 l 372 325 l 349 344 q 273 408 253 438 q 233 467 233 514 q 233 602 296 661 q 360 720 463 728 l 479 795 l 525 795 l 509 723 q 593 718 674 691 l 646 551 l 580 551 l 581 560 l 585 590 q 589 615 589 621 q 589 669 500 680 l 448 424 l 490 390 q 558 334 579 303 q 601 272 601 229 q 601 135 532 72 q 463 8 353 -1 l 337 -78 z m 364 53 q 474 85 474 189 q 474 237 412 292 z m 409 456 l 453 676 q 406 668 378 636 q 350 604 350 557 q 350 506 409 456 z"},"?":{"x_min":0,"x_max":493,"ha":493,"o":"m 135 0 l 159 121 l 303 121 l 279 0 z m 176 205 q 193 267 209 289 q 225 311 296 370 l 339 406 q 429 482 429 581 q 429 631 400 663 q 370 696 324 696 q 241 696 228 627 q 222 600 220 590 l 217 582 l 145 582 l 170 710 q 278 741 368 741 q 463 741 518 703 q 573 665 573 599 q 573 530 509 479 l 447 431 l 417 408 q 343 351 319 205 z"},"<":{"x_min":0,"x_max":795,"ha":795,"o":"m 687 0 l 166 289 l 802 578 l 786 498 l 329 290 l 329 289 l 703 81 z"},"'":{"x_min":0,"x_max":248,"ha":248,"o":"m 193 470 l 193 771 l 350 771 l 236 470 z"},"=":{"x_min":0,"x_max":795,"ha":795,"o":"m 141 163 l 155 235 l 733 235 l 719 163 z m 177 343 l 191 416 l 770 416 l 755 343 z"},"a":{"x_min":0,"x_max":634,"ha":634,"o":"m 401 0 l 446 226 q 395 121 320 54 q 245 -12 177 -12 q 130 -12 100 24 q 69 60 69 114 q 69 200 113 295 q 157 390 229 456 q 322 542 453 542 q 468 542 482 541 l 513 538 q 519 537 532 536 l 652 536 l 574 142 l 566 93 l 563 77 q 565 50 624 46 l 633 45 l 624 0 z m 465 320 l 495 465 q 444 495 400 495 q 281 495 230 248 q 215 173 215 143 q 215 96 250 96 q 312 96 400 225 l 455 306 q 458 309 465 320 z"},"L":{"x_min":0,"x_max":611,"ha":611,"o":"m 589 0 l 35 0 l 44 45 l 53 46 q 101 49 111 55 q 122 62 129 93 l 142 142 l 229 582 l 236 629 l 239 646 q 237 673 179 677 l 170 678 l 179 723 l 486 723 l 477 678 l 468 677 q 419 673 409 667 q 399 661 392 629 l 380 582 l 292 142 q 284 101 284 74 q 284 52 327 52 l 371 51 l 432 51 l 474 53 q 510 53 520 60 q 530 68 535 100 q 541 131 548 160 l 551 168 l 623 168 z"},"3":{"x_min":0,"x_max":636,"ha":636,"o":"m 102 8 l 128 142 l 195 142 l 193 132 l 189 103 q 188 92 188 83 q 188 62 220 46 q 252 30 297 30 q 369 30 415 83 q 460 136 460 221 q 460 364 271 364 l 236 364 l 245 410 l 282 410 q 393 410 455 456 q 517 501 517 584 q 517 633 487 665 q 457 696 410 696 q 328 696 311 632 l 300 587 l 297 578 l 231 578 l 259 719 q 346 741 437 741 q 661 741 661 599 q 661 532 606 477 q 552 421 458 393 q 613 354 613 228 q 613 121 524 51 q 435 -18 297 -18 q 199 -18 102 8 z"},";":{"x_min":0,"x_max":265,"ha":265,"o":"m 113 0 l 59 0 l 88 145 l 234 145 l 212 33 q 177 -150 26 -157 l 37 -114 q 102 -110 112 -12 z m 138 392 l 167 536 l 312 536 l 283 392 z"},"J":{"x_min":0,"x_max":478,"ha":478,"o":"m -14 -129 l 15 17 l 87 17 l 86 8 q 85 2 81 -25 q 78 -40 78 -51 q 78 -92 133 -92 q 175 -92 195 -62 q 215 -32 233 59 l 337 582 l 344 629 l 347 646 q 345 673 287 677 l 278 678 l 287 723 l 594 723 l 585 678 l 576 677 q 527 673 518 667 q 508 661 500 629 l 487 582 l 395 116 q 377 26 356 -13 q 336 -52 288 -86 q 212 -142 96 -142 q 43 -142 -14 -129 z"},"V":{"x_min":0,"x_max":741,"ha":741,"o":"m 336 -9 l 211 582 q 201 627 201 629 q 195 674 166 676 l 143 677 l 134 678 l 143 723 l 423 723 l 414 678 l 405 678 q 356 678 356 648 q 356 645 356 642 l 361 609 l 366 581 l 454 162 l 707 579 q 752 652 752 664 q 752 677 725 677 l 700 678 l 691 678 l 700 723 l 884 723 l 875 678 l 866 677 q 836 675 828 670 q 819 666 807 644 l 767 580 l 409 -9 z"},"\"":{"x_min":0,"x_max":451,"ha":451,"o":"m 198 482 l 198 771 l 343 771 l 237 482 z m 415 482 l 415 771 l 560 771 l 454 482 z"},"7":{"x_min":0,"x_max":636,"ha":636,"o":"m 167 0 q 183 141 336 303 l 445 417 l 622 600 l 208 600 l 233 723 l 724 723 l 704 626 l 671 587 q 667 582 634 545 q 343 224 320 0 z"},"S":{"x_min":0,"x_max":587,"ha":587,"o":"m 71 12 l 100 160 l 172 160 l 171 150 l 167 114 l 165 92 q 165 68 204 48 q 244 29 293 29 q 346 29 386 73 q 426 116 426 173 q 426 239 332 311 l 300 335 q 178 429 178 518 q 178 614 255 677 q 333 741 452 741 q 537 741 652 709 l 624 566 l 551 566 l 553 575 l 557 610 q 560 631 560 635 q 560 660 528 677 q 496 693 449 693 q 393 693 358 657 q 323 621 323 564 q 323 511 404 446 l 448 411 q 528 347 556 305 q 584 264 584 211 q 584 110 494 46 q 403 -18 262 -18 q 194 -18 108 3 z"},"}":{"x_min":0,"x_max":361,"ha":361,"o":"m 29 -145 l 37 -103 q 85 -97 103 -66 q 122 -36 122 37 l 122 66 q 122 248 290 313 q 196 364 196 456 q 196 487 225 562 l 241 602 l 253 634 q 262 658 262 677 q 262 714 202 726 l 211 771 q 395 771 395 654 q 395 612 357 529 l 339 489 q 307 417 307 393 q 307 337 372 337 l 390 337 l 381 292 l 364 292 q 259 292 259 157 q 259 142 260 125 l 262 91 q 263 75 263 57 q 263 -145 29 -145 z"},"Z":{"x_min":0,"x_max":684,"ha":684,"o":"m 63 0 l 71 54 l 558 675 l 371 675 l 339 672 q 312 671 305 665 q 297 660 292 636 q 285 606 281 590 l 278 582 l 206 582 l 234 723 l 747 723 l 737 675 l 248 54 l 450 54 l 508 57 q 535 57 544 64 q 554 72 560 99 q 567 131 569 139 l 572 147 l 644 147 l 615 0 z"},"x":{"x_min":0,"x_max":534,"ha":534,"o":"m 43 0 q 42 14 42 21 q 42 111 181 210 l 231 246 l 256 263 l 176 438 q 160 475 152 481 q 144 488 116 490 l 106 491 l 116 536 l 283 536 l 370 333 l 383 346 q 458 417 458 468 q 458 511 432 536 l 559 536 q 568 514 568 498 q 568 421 405 299 l 391 288 l 459 139 l 484 90 q 505 48 539 46 l 548 45 l 539 0 l 371 0 l 280 214 l 261 199 q 157 117 157 44 q 157 21 172 0 z"},")":{"x_min":0,"x_max":336,"ha":336,"o":"m 23 -105 q 126 -19 185 147 q 244 312 244 518 q 244 661 194 732 l 198 777 q 280 727 328 635 q 376 542 376 434 q 376 255 280 100 q 184 -56 14 -150 z"},"&":{"x_min":0,"x_max":772,"ha":772,"o":"m 530 0 q 515 19 503 38 l 500 44 q 399 -18 297 -18 q 202 -18 137 39 q 72 96 72 180 q 72 346 307 433 q 277 510 277 548 q 277 629 344 685 q 410 741 505 741 q 576 741 620 704 q 665 668 665 609 q 665 479 455 414 q 501 292 582 165 q 648 247 648 330 q 648 354 617 356 l 592 358 l 583 358 l 592 404 l 830 404 l 821 358 l 812 358 l 790 357 q 762 357 753 332 q 748 316 745 310 l 738 294 q 706 210 607 126 q 624 104 631 93 q 652 63 665 55 q 679 47 708 47 q 714 47 735 46 l 744 45 l 735 0 z m 477 85 q 374 247 325 391 q 213 336 213 214 q 213 141 255 97 q 297 53 368 53 q 427 53 477 85 z m 440 455 q 549 509 549 619 q 549 698 491 698 q 456 698 434 664 q 412 631 412 578 q 412 529 440 455 z"},"_":{"x_min":0,"x_max":500,"ha":500,"o":"m 28 -72 l 42 0 l 458 0 l 443 -72 z"},"v":{"x_min":0,"x_max":584,"ha":584,"o":"m 240 -6 q 227 209 163 393 q 129 488 88 490 l 79 491 l 88 536 l 271 536 q 343 344 358 154 l 403 208 q 528 359 528 434 q 528 487 480 536 l 650 536 q 659 508 659 488 q 659 438 595 351 q 530 263 340 54 l 286 -6 z"},"O":{"x_min":0,"x_max":832,"ha":832,"o":"m 395 -18 q 263 -18 187 55 q 110 128 110 254 q 110 451 251 596 q 392 741 584 741 q 717 741 793 669 q 869 597 869 469 q 869 271 728 126 q 588 -18 395 -18 z m 424 30 q 542 30 626 162 q 710 294 710 479 q 710 580 670 635 q 631 691 560 691 q 439 691 355 560 q 271 429 271 241 q 271 30 424 30 z"},"(":{"x_min":0,"x_max":336,"ha":336,"o":"m 438 732 q 334 646 275 480 q 216 314 216 109 q 216 -34 266 -105 l 262 -150 q 180 -100 132 -8 q 84 84 84 192 q 84 372 181 527 q 277 682 447 777 z"},"C":{"x_min":0,"x_max":740,"ha":740,"o":"m 678 36 q 528 -20 401 -20 q 266 -20 188 54 q 110 127 110 256 q 110 456 251 599 q 393 741 593 741 q 697 741 807 714 l 773 545 l 701 545 l 702 554 l 708 600 q 711 621 711 623 q 711 651 669 672 q 627 692 568 692 q 448 692 361 568 q 274 444 274 271 q 274 51 466 51 q 552 51 692 93 z"},"W":{"x_min":0,"x_max":922,"ha":922,"o":"m 227 -9 l 188 582 l 184 623 q 182 656 174 665 q 166 675 138 677 l 129 678 l 138 723 l 391 723 l 382 678 l 373 678 q 342 678 333 670 q 324 663 324 637 q 324 603 325 581 l 352 209 l 588 717 l 661 717 l 707 196 l 900 580 q 934 647 934 661 q 934 678 888 678 l 879 678 l 888 723 l 1065 723 l 1057 678 l 1047 677 q 1020 675 1011 669 q 1001 662 989 636 l 960 580 l 661 -9 l 589 -9 l 544 507 l 299 -9 z"},"A":{"x_min":0,"x_max":764,"ha":764,"o":"m 237 223 l 187 144 l 164 107 q 144 73 144 62 q 144 45 175 45 l 199 45 l 208 45 l 199 0 l 0 0 l 9 45 l 18 46 q 57 48 67 54 q 77 60 93 89 q 98 98 126 144 l 487 732 l 562 732 l 695 141 l 711 85 q 718 60 725 54 q 732 48 762 46 l 771 45 l 762 0 l 473 0 l 482 45 l 491 45 l 527 46 q 559 46 559 72 q 559 76 558 80 l 552 108 l 545 142 l 528 223 z m 266 271 l 516 271 l 449 569 z"},"f":{"x_min":0,"x_max":416,"ha":416,"o":"m 58 -193 l 193 488 l 124 488 l 133 536 l 203 536 q 280 783 477 783 q 542 783 601 761 l 573 621 l 513 621 l 514 629 l 520 672 q 521 683 521 693 q 521 739 462 739 q 417 739 396 707 q 375 675 354 574 l 347 536 l 498 536 l 488 488 l 337 488 l 202 -193 z"},"Q":{"x_min":0,"x_max":835,"ha":835,"o":"m 449 -17 l 421 -18 l 398 -18 q 265 -18 188 55 q 112 128 112 254 q 112 451 253 596 q 394 741 586 741 q 720 741 795 669 q 871 597 871 468 q 871 308 775 178 q 680 49 522 -4 q 676 -99 859 -99 q 911 -99 953 -88 q 901 -150 874 -168 q 846 -186 800 -186 q 648 -186 449 -17 z m 426 30 q 543 30 628 162 q 712 294 712 479 q 712 580 672 635 q 633 691 562 691 q 441 691 357 560 q 272 429 272 241 q 272 30 426 30 z"},"w":{"x_min":0,"x_max":822,"ha":822,"o":"m 225 -6 q 209 256 182 351 l 157 440 q 148 471 137 480 q 126 488 92 490 l 83 491 l 92 536 l 263 535 q 322 356 338 198 q 463 376 494 536 l 540 536 l 556 483 q 612 302 628 175 l 671 240 q 763 377 763 445 q 763 475 736 519 q 732 525 725 536 l 887 536 q 892 516 892 503 q 892 432 759 259 q 707 191 697 177 l 568 -6 l 521 -6 q 521 158 475 312 q 439 243 398 183 l 313 61 l 267 -6 z"},"-":{"x_min":0,"x_max":579,"ha":579,"o":"m 123 253 l 137 325 l 571 325 l 556 253 z"},"E":{"x_min":0,"x_max":630,"ha":630,"o":"m 586 0 l 35 0 l 44 45 l 53 46 q 101 49 111 55 q 122 62 129 93 l 142 142 l 229 582 l 236 629 l 239 646 q 237 673 179 677 l 170 678 l 179 723 l 709 723 l 683 593 l 611 593 l 612 603 q 616 630 616 632 q 621 646 621 647 q 619 675 554 675 l 398 675 l 344 400 l 444 400 l 492 401 q 519 401 524 426 q 526 434 530 449 l 533 458 l 584 458 l 553 301 l 501 301 l 503 310 q 504 320 506 330 q 507 337 507 344 q 507 356 482 356 l 437 358 l 333 358 l 289 142 q 281 102 281 74 q 281 52 324 52 l 368 51 l 429 51 l 484 53 q 519 53 527 80 l 539 126 l 541 136 l 613 136 z"},"s":{"x_min":0,"x_max":479,"ha":479,"o":"m 55 24 l 79 147 l 140 147 l 138 139 l 135 111 q 132 91 132 87 q 132 64 162 49 q 192 33 235 33 q 274 33 301 59 q 327 85 327 123 q 327 159 283 203 l 244 241 q 152 332 152 394 q 152 463 213 506 q 274 548 373 548 q 443 548 519 525 l 494 400 l 434 400 l 435 410 l 439 439 q 442 459 442 463 q 442 505 375 505 q 281 505 281 425 q 281 384 332 337 l 371 301 q 463 215 463 152 q 463 79 402 33 q 341 -12 241 -12 q 147 -12 55 24 z"},">":{"x_min":0,"x_max":795,"ha":795,"o":"m 108 0 l 125 81 l 582 289 l 582 290 l 208 498 l 224 578 l 744 289 z"},"l":{"x_min":0,"x_max":319,"ha":319,"o":"m 84 0 l 210 629 l 217 678 l 220 694 q 218 721 160 725 l 150 726 l 160 771 l 382 771 l 257 142 l 250 93 l 247 77 q 250 50 308 46 l 316 45 l 307 0 z"},"8":{"x_min":0,"x_max":636,"ha":636,"o":"m 285 390 q 202 453 202 531 q 202 622 282 681 q 362 741 485 741 q 574 741 627 700 q 679 660 679 592 q 679 479 499 410 q 582 354 611 314 q 641 275 641 221 q 641 123 546 52 q 451 -18 318 -18 q 210 -18 148 28 q 86 74 86 154 q 86 286 285 390 z m 322 361 q 235 272 235 175 q 235 111 271 71 q 307 31 364 31 q 422 31 461 70 q 499 109 499 168 q 499 241 407 303 z m 459 435 q 546 506 546 591 q 546 695 452 695 q 404 695 370 661 q 335 627 335 581 q 335 516 425 457 z"},"\\":{"x_min":0,"x_max":553,"ha":553,"o":"m 416 -145 l 340 -145 l 252 723 l 328 723 z"},"e":{"x_min":0,"x_max":548,"ha":548,"o":"m 557 133 l 542 66 q 384 -12 271 -12 q 184 -12 130 37 q 77 86 77 167 q 77 315 186 432 q 294 548 432 548 q 488 548 525 517 q 562 486 562 439 q 562 346 462 278 q 362 210 225 210 q 224 196 224 186 q 224 130 256 97 q 288 64 341 64 q 427 64 557 133 z m 230 257 q 316 257 372 300 q 427 343 427 410 q 427 492 371 492 q 320 492 281 426 q 241 360 230 257 z"},"b":{"x_min":0,"x_max":632,"ha":632,"o":"m 83 -9 l 209 629 l 217 678 l 220 694 q 218 721 159 725 l 150 726 l 159 771 l 382 771 l 291 310 q 340 415 415 481 q 490 548 559 548 q 606 548 637 512 q 667 476 667 419 q 667 340 628 250 q 589 160 525 93 q 425 -12 299 -12 q 258 -12 190 6 z m 271 216 l 242 74 q 286 40 338 40 q 424 40 477 188 q 521 312 521 392 q 521 441 486 441 q 424 441 281 230 z"},"%":{"x_min":0,"x_max":772,"ha":772,"o":"m 236 361 q 92 361 92 488 q 92 589 152 656 q 212 723 304 723 q 369 723 408 687 q 447 651 447 591 q 447 495 386 428 q 325 361 236 361 z m 245 406 q 284 406 313 469 q 343 531 343 616 q 343 675 293 675 q 254 675 226 613 q 197 550 197 464 q 197 406 245 406 z m 72 0 l 742 723 l 840 723 l 170 0 z m 615 0 q 471 0 471 126 q 471 228 531 294 q 592 361 683 361 q 748 361 787 325 q 827 290 827 230 q 827 133 765 66 q 704 0 615 0 z m 625 44 q 664 44 693 107 q 722 170 722 255 q 722 313 672 313 q 633 313 605 251 q 577 189 577 103 q 577 44 625 44 z"},"m":{"x_min":0,"x_max":969,"ha":969,"o":"m 90 0 l 169 395 l 176 443 l 179 459 q 177 486 119 490 l 110 491 l 119 536 l 341 536 l 291 312 q 422 548 555 548 q 592 548 618 522 q 645 496 645 459 q 645 438 635 391 l 619 312 q 754 548 883 548 q 921 548 945 520 q 969 492 969 448 q 969 421 962 386 l 914 142 l 907 93 l 903 77 q 906 50 964 46 l 973 45 l 964 0 l 747 0 l 816 348 q 823 383 823 393 q 823 424 795 424 q 728 424 600 213 l 557 0 l 418 0 l 488 347 q 495 381 495 394 q 495 424 469 424 q 411 424 288 239 l 270 211 l 229 0 z"},"#":{"x_min":0,"x_max":636,"ha":636,"o":"m 88 0 l 190 211 l 81 211 l 95 271 l 220 271 l 304 452 l 130 452 l 143 512 l 333 512 l 436 723 l 501 723 l 399 512 l 529 512 l 630 723 l 697 723 l 594 512 l 702 512 l 690 452 l 565 452 l 482 271 l 654 271 l 642 211 l 453 211 l 351 0 l 284 0 l 386 211 l 258 211 l 156 0 z m 287 271 l 416 271 l 500 452 l 371 452 z"},",":{"x_min":0,"x_max":265,"ha":265,"o":"m 113 0 l 53 0 l 86 157 l 244 157 l 218 36 q 197 -66 153 -109 q 109 -152 21 -157 l 31 -114 q 96 -103 110 -17 z"},"n":{"x_min":0,"x_max":656,"ha":656,"o":"m 90 0 l 169 395 l 176 443 l 179 459 q 177 486 119 490 l 110 491 l 119 536 l 341 536 l 297 312 q 354 422 426 485 q 498 548 567 548 q 604 548 631 520 q 657 492 657 453 q 657 428 649 385 l 601 142 l 593 93 l 590 77 q 593 50 651 46 l 660 45 l 650 0 l 428 0 l 503 378 l 506 394 q 507 402 507 417 q 507 441 489 441 q 430 441 277 214 l 235 0 z"},"h":{"x_min":0,"x_max":656,"ha":656,"o":"m 90 0 l 216 629 l 223 678 l 226 694 q 224 721 166 725 l 157 726 l 166 771 l 388 771 l 297 312 q 354 422 426 485 q 498 548 567 548 q 604 548 631 520 q 657 492 657 452 q 657 428 649 385 l 601 142 l 594 93 l 590 77 q 593 50 651 46 l 660 45 l 651 0 l 428 0 l 503 378 l 507 394 q 509 404 509 417 q 509 441 489 441 q 430 441 276 214 l 235 0 z"},"z":{"x_min":0,"x_max":566,"ha":566,"o":"m 40 0 l 49 48 l 442 491 l 291 491 q 249 491 234 483 q 219 475 212 449 l 198 400 l 196 392 l 129 392 l 158 536 l 610 536 l 601 491 l 219 54 l 371 54 l 426 58 q 453 60 462 66 q 471 73 477 97 l 489 142 l 491 150 l 558 150 l 527 0 z"},"B":{"x_min":0,"x_max":651,"ha":651,"o":"m 481 372 q 648 336 648 204 q 648 111 575 55 q 501 0 378 0 l 35 0 l 44 45 l 53 46 q 101 49 111 55 q 122 62 129 93 l 142 142 l 229 582 l 236 629 l 239 646 q 237 673 179 677 l 170 678 l 179 723 l 457 723 q 578 723 633 690 q 687 658 687 586 q 687 513 631 455 q 576 397 481 372 z m 318 347 l 277 142 l 271 104 l 268 87 q 271 54 326 54 q 406 54 452 99 q 498 144 498 223 q 498 347 335 347 z m 328 397 l 352 397 q 437 397 488 446 q 539 494 539 574 q 539 631 509 653 q 479 675 401 675 l 384 675 z"},"K":{"x_min":0,"x_max":746,"ha":746,"o":"m 324 346 l 284 142 l 277 93 q 274 78 274 76 q 274 49 322 46 l 331 45 l 322 0 l 36 0 l 44 45 l 54 46 q 101 49 111 55 q 122 62 129 93 l 142 142 l 229 582 l 236 629 l 239 647 q 237 673 180 677 l 170 678 l 180 723 l 478 723 l 469 678 l 459 677 q 411 673 401 667 q 392 661 384 629 l 371 582 l 332 384 l 565 583 q 591 605 612 626 q 637 650 646 658 q 654 664 654 667 q 654 676 630 676 q 625 676 616 677 l 607 678 l 617 723 l 809 723 l 800 678 l 791 677 q 775 676 773 676 q 747 674 718 649 l 638 583 l 446 418 l 643 141 l 688 80 q 703 57 711 52 q 718 47 744 46 l 753 45 l 744 0 l 449 0 l 458 45 l 466 45 l 483 46 q 510 46 510 61 q 510 74 461 145 z"},"R":{"x_min":0,"x_max":711,"ha":711,"o":"m 386 325 l 323 325 l 286 142 l 279 93 l 275 74 q 277 49 325 46 l 333 45 l 324 0 l 35 0 l 44 45 l 53 46 q 101 49 111 55 q 121 62 129 93 l 142 142 l 229 582 l 236 629 l 239 647 q 236 673 179 677 l 170 678 l 179 723 l 396 723 l 451 724 l 522 726 q 717 726 717 583 q 717 507 666 443 q 614 378 526 342 l 621 142 l 650 86 q 663 59 670 53 q 678 47 704 46 l 713 45 l 704 0 l 527 0 z m 333 374 l 365 374 q 455 374 511 427 q 567 480 567 567 q 567 675 443 675 l 393 675 z"},"T":{"x_min":0,"x_max":716,"ha":716,"o":"m 418 675 l 301 675 q 255 675 242 667 q 229 660 222 632 q 213 591 210 582 l 208 572 l 136 572 l 166 723 l 840 723 l 811 572 l 738 572 l 739 582 q 742 601 748 632 q 750 643 750 653 q 750 675 686 675 l 569 675 l 463 142 q 455 102 455 72 q 455 50 492 48 l 525 46 l 534 45 l 525 0 l 193 0 l 203 45 l 212 46 l 246 48 q 274 50 283 58 q 292 65 299 93 l 312 142 z"},"P":{"x_min":0,"x_max":628,"ha":628,"o":"m 179 723 l 382 723 l 467 725 l 525 726 q 711 726 711 579 q 711 455 614 372 q 517 289 371 289 l 316 289 l 286 142 q 279 105 279 72 q 279 50 316 48 l 349 46 l 357 45 l 349 0 l 35 0 l 44 45 l 53 46 q 101 49 111 55 q 121 62 129 93 l 142 142 l 229 582 l 236 629 l 239 647 q 236 673 179 677 l 170 678 z m 325 337 l 358 337 q 445 337 502 402 q 559 466 559 564 q 559 675 444 675 l 392 675 z"},"|":{"x_min":0,"x_max":374,"ha":374,"o":"m 122 -145 l 304 771 l 376 771 l 194 -145 z"},"t":{"x_min":0,"x_max":375,"ha":375,"o":"m 442 488 l 323 488 l 260 181 q 250 131 250 106 q 250 50 310 50 q 330 50 358 63 l 347 7 q 288 -12 245 -12 q 104 -12 104 102 q 104 126 111 161 l 178 488 l 98 488 l 112 536 l 187 536 l 206 627 l 356 653 l 333 536 l 456 536 z"},"M":{"x_min":0,"x_max":926,"ha":926,"o":"m 794 604 l 470 93 l 421 93 l 297 562 l 214 142 l 208 93 l 204 77 q 207 50 265 46 l 273 45 l 264 0 l 35 0 l 44 45 l 53 46 q 101 49 111 55 q 121 62 129 93 l 142 142 l 229 582 l 236 629 l 239 647 q 236 673 179 677 l 170 678 l 179 723 l 386 723 l 514 237 l 815 723 l 1034 723 l 1025 678 l 1016 677 q 968 673 958 667 q 948 661 940 629 l 928 582 l 840 142 l 833 93 l 831 77 q 833 50 891 46 l 899 45 l 891 0 l 595 0 l 604 45 l 613 46 q 661 49 671 55 q 681 62 689 93 l 702 142 z"},"g":{"x_min":0,"x_max":628,"ha":628,"o":"m 74 -185 l 41 -29 q 194 -149 297 -149 q 373 -149 391 -61 l 408 31 l 451 248 q 396 145 324 81 q 251 18 188 18 q 73 18 73 152 q 73 268 177 401 q 288 542 453 542 q 469 542 482 541 l 513 538 q 518 538 532 536 l 653 536 l 579 164 q 549 14 531 -34 q 512 -83 471 -122 q 381 -205 219 -205 q 155 -205 74 -185 z m 477 347 l 502 458 q 459 497 400 497 q 336 497 280 394 q 223 292 223 175 q 223 124 258 124 q 327 124 455 314 z"},"j":{"x_min":0,"x_max":381,"ha":381,"o":"m -86 -182 l -61 -51 l 6 -51 l 5 -60 q 2 -78 -1 -93 q -4 -107 -4 -119 q -4 -160 47 -160 q 125 -160 146 -64 l 158 0 l 236 395 l 244 443 l 247 459 q 245 486 187 490 l 177 491 l 187 536 l 409 536 l 317 72 q 292 -60 217 -132 q 143 -205 33 -205 q -31 -205 -86 -182 z m 286 626 l 311 753 l 456 753 l 431 626 z"},"i":{"x_min":0,"x_max":319,"ha":319,"o":"m 90 0 l 169 395 l 176 443 l 179 459 q 177 486 119 490 l 110 491 l 119 536 l 342 536 l 263 142 l 256 93 l 253 77 q 255 50 313 46 l 322 45 l 313 0 z m 215 626 l 240 753 l 385 753 l 360 626 z"},"y":{"x_min":0,"x_max":586,"ha":586,"o":"m -23 -193 q 109 -125 246 16 q 207 285 169 393 q 147 457 133 473 q 119 490 88 490 l 74 491 l 83 536 l 273 536 q 338 347 358 157 l 395 201 q 531 363 531 430 q 531 489 480 536 l 646 536 q 658 509 658 487 q 658 439 627 392 q 595 345 458 187 l 345 58 q 229 -76 161 -193 z"},"@":{"x_min":0,"x_max":861,"ha":861,"o":"m 604 22 q 511 -18 431 -18 q 293 -18 202 68 q 111 153 111 282 q 111 463 250 602 q 389 741 571 741 q 708 741 801 653 q 894 565 894 437 q 894 315 818 230 q 742 145 633 145 q 554 145 554 199 q 554 229 581 307 l 563 307 q 458 145 373 145 q 287 145 287 256 q 287 376 367 474 q 447 572 545 572 q 574 572 619 559 l 633 554 l 696 554 l 645 298 q 638 267 638 243 q 638 200 678 200 q 741 200 795 276 q 849 351 849 439 q 849 547 767 622 q 686 696 568 696 q 404 696 280 570 q 156 443 156 277 q 156 170 232 99 q 309 27 423 27 q 499 27 588 65 z m 576 386 l 599 500 q 560 529 511 529 q 456 529 415 455 q 373 381 373 282 q 373 217 416 217 q 480 217 576 386 z"},".":{"x_min":0,"x_max":265,"ha":265,"o":"m 54 0 l 85 157 l 242 157 l 211 0 z"},"p":{"x_min":0,"x_max":639,"ha":639,"o":"m 52 -193 l 168 395 l 176 443 l 179 459 q 177 486 119 490 l 109 491 l 119 536 l 341 536 l 296 310 q 347 416 422 482 q 497 548 565 548 q 612 548 643 512 q 673 476 673 419 q 673 259 559 125 q 444 -10 308 -10 q 279 -10 234 -3 l 196 -193 z m 277 216 l 248 74 q 292 40 344 40 q 430 40 483 188 q 527 312 527 392 q 527 441 492 441 q 430 441 287 230 z"},"X":{"x_min":0,"x_max":672,"ha":672,"o":"m 341 356 l 246 583 l 225 633 q 214 661 205 668 q 195 675 166 677 l 156 678 l 166 723 l 442 723 l 434 678 l 424 678 l 410 677 q 379 677 379 653 q 379 637 402 583 l 460 443 l 581 583 l 610 624 q 636 660 636 664 q 636 678 605 678 l 596 678 l 605 723 l 789 723 l 780 678 l 771 677 q 733 674 711 650 l 649 583 l 484 392 l 585 146 l 609 92 q 621 65 631 56 q 642 47 666 46 l 675 45 l 666 0 l 392 0 l 401 45 l 410 45 l 432 46 q 459 46 459 66 q 459 77 442 119 l 432 146 l 365 304 l 220 147 q 150 72 150 61 q 150 45 188 45 l 196 45 l 187 0 l 0 0 l 9 45 l 19 46 q 58 48 98 92 l 149 147 z"},"*":{"x_min":0,"x_max":434,"ha":434,"o":"m 306 488 l 222 355 l 148 418 l 275 514 q 285 492 306 488 z m 274 529 l 133 543 l 188 647 l 296 572 q 274 553 274 529 z m 311 581 l 308 723 l 415 723 l 355 581 q 344 586 334 586 q 324 586 311 581 z m 365 572 l 504 646 l 517 542 l 370 529 q 373 538 373 544 q 373 558 365 572 z m 363 514 l 451 418 l 352 355 l 322 488 q 343 493 363 514 z"},"Y":{"x_min":0,"x_max":668,"ha":668,"o":"m 321 325 l 217 583 l 199 626 q 187 660 178 667 q 169 675 140 677 l 131 678 l 140 723 l 420 723 l 411 678 l 402 678 l 382 677 q 352 677 352 656 q 352 637 374 582 l 453 380 l 614 581 q 667 646 667 662 q 667 678 631 678 l 622 678 l 631 723 l 814 723 l 806 678 l 793 677 q 784 677 777 676 q 752 675 735 650 q 731 646 679 580 l 471 320 l 435 142 q 428 105 428 72 q 428 50 465 48 l 498 46 l 506 45 l 497 0 l 166 0 l 175 45 l 184 46 l 217 48 q 246 50 255 58 q 264 65 271 93 l 284 142 z"},"c":{"x_min":0,"x_max":524,"ha":524,"o":"m 500 40 q 373 -12 275 -12 q 186 -12 131 38 q 77 87 77 168 q 77 321 186 435 q 295 548 442 548 q 509 548 583 521 l 554 374 l 488 374 l 489 383 l 496 427 q 498 438 498 449 q 498 471 473 487 q 448 503 414 503 q 341 503 285 408 q 229 313 229 192 q 229 61 354 61 q 422 61 510 96 z"},"!":{"x_min":0,"x_max":265,"ha":265,"o":"m 60 0 l 84 121 l 229 121 l 205 0 z m 136 205 l 175 578 l 204 723 l 349 723 l 320 578 l 211 205 z"},"/":{"x_min":0,"x_max":553,"ha":553,"o":"m 80 -145 l 513 723 l 588 723 l 155 -145 z"},"[":{"x_min":0,"x_max":336,"ha":336,"o":"m 39 -145 l 221 771 l 446 771 l 436 723 l 335 723 l 172 -96 l 273 -96 l 264 -145 z"},"6":{"x_min":0,"x_max":636,"ha":636,"o":"m 287 405 q 372 470 458 470 q 542 470 595 419 q 649 368 649 290 q 649 164 561 73 q 472 -18 350 -18 q 239 -18 175 54 q 110 125 110 249 q 110 474 257 630 q 361 741 517 741 q 608 741 701 709 l 672 566 l 606 566 l 607 575 l 612 617 q 615 636 615 641 q 615 665 588 681 q 561 698 522 698 q 439 698 373 616 q 308 535 287 405 z m 255 199 q 255 27 357 27 q 419 27 464 101 q 508 174 508 276 q 508 410 406 410 q 338 410 297 352 q 255 293 255 199 z"},"r":{"x_min":0,"x_max":496,"ha":496,"o":"m 91 0 l 170 395 l 177 443 l 180 459 q 178 486 120 490 l 111 491 l 120 536 l 343 536 l 298 312 q 352 418 424 483 q 496 548 559 548 q 578 548 595 539 l 544 401 q 520 418 499 418 q 400 418 279 216 l 236 0 z"},"2":{"x_min":0,"x_max":636,"ha":636,"o":"m 75 0 l 90 75 q 139 174 286 290 l 350 340 q 521 476 521 578 q 521 631 489 664 q 456 696 403 696 q 301 696 281 618 l 269 569 l 267 560 l 200 560 l 228 697 q 368 741 455 741 q 553 741 613 697 q 672 653 672 581 q 672 464 494 365 l 411 318 q 249 228 219 114 l 580 114 l 557 0 z"},"{":{"x_min":0,"x_max":361,"ha":361,"o":"m 458 771 l 449 729 q 401 723 383 693 q 365 663 365 590 l 365 561 q 365 378 197 313 q 291 262 291 171 q 291 140 261 64 l 246 25 l 233 -8 q 225 -32 225 -50 q 225 -88 284 -100 l 275 -145 q 92 -145 92 -28 q 92 15 129 97 l 147 138 q 179 209 179 233 q 179 289 114 289 l 97 289 l 105 334 l 123 334 q 227 334 227 470 q 227 485 226 501 l 225 535 q 224 551 224 569 q 224 771 458 771 z"},"9":{"x_min":0,"x_max":636,"ha":636,"o":"m 491 317 q 406 253 319 253 q 236 253 182 304 q 128 355 128 433 q 128 559 217 650 q 306 741 428 741 q 539 741 603 669 q 667 598 667 474 q 667 249 521 92 q 417 -18 260 -18 q 170 -18 77 13 l 105 157 l 172 157 l 171 147 l 166 106 q 163 87 163 82 q 163 58 190 42 q 217 25 255 25 q 338 25 404 107 q 470 188 491 317 z m 523 524 q 523 696 421 696 q 358 696 314 623 q 270 549 270 447 q 270 313 372 313 q 439 313 481 371 q 523 429 523 524 z"}," ":{"x_min":0,"x_max":312,"ha":312,"o":""},"I":{"x_min":0,"x_max":372,"ha":372,"o":"m 343 0 l 36 0 l 44 45 l 54 46 q 101 49 112 55 q 123 62 130 93 l 142 142 l 229 582 l 237 629 l 240 646 q 238 673 179 677 l 170 678 l 180 723 l 487 723 l 478 678 l 469 677 q 420 673 410 667 q 400 661 393 629 l 380 582 l 292 142 l 286 93 l 283 77 q 285 50 343 46 l 352 45 z"},"H":{"x_min":0,"x_max":827,"ha":827,"o":"m 333 347 l 292 142 l 286 93 l 283 77 q 286 50 343 46 l 352 45 l 343 0 l 36 0 l 44 45 l 54 46 q 101 49 111 55 q 122 62 129 93 l 142 142 l 229 582 l 236 629 l 239 647 q 237 673 180 677 l 170 678 l 180 723 l 487 723 l 478 678 l 469 677 q 420 673 411 667 q 401 661 393 629 l 380 582 l 345 404 l 643 404 l 678 582 l 685 629 l 688 647 q 686 673 628 677 l 619 678 l 628 723 l 936 723 l 926 678 l 918 677 q 868 673 859 667 q 850 662 842 629 l 829 582 l 741 142 l 735 93 l 732 76 q 734 50 792 46 l 801 45 l 792 0 l 484 0 l 493 45 l 502 46 q 550 49 560 55 q 570 62 578 93 l 591 142 l 632 347 z"},"4":{"x_min":0,"x_max":636,"ha":636,"o":"m 399 194 l 70 194 l 86 275 l 522 732 l 630 732 l 543 297 l 640 297 l 620 194 l 523 194 l 513 142 l 506 93 l 503 76 q 506 53 536 48 l 575 46 l 584 45 l 575 0 l 271 0 l 280 45 l 289 46 l 330 48 q 354 50 362 58 q 370 65 376 93 l 389 142 z m 169 297 l 420 297 l 487 632 z"},"~":{"x_min":0,"x_max":795,"ha":795,"o":"m 151 217 q 184 374 316 374 q 366 374 428 346 l 462 331 l 504 313 l 546 295 q 596 274 621 274 q 693 274 710 361 l 759 361 q 725 205 594 205 q 544 205 482 232 l 448 248 l 406 265 l 364 283 q 314 304 289 304 q 216 304 200 217 z"},"D":{"x_min":0,"x_max":822,"ha":822,"o":"m 35 0 l 44 45 l 53 46 q 101 49 111 55 q 122 62 129 93 l 142 142 l 229 582 l 236 629 l 239 646 q 237 673 179 677 l 170 678 l 179 723 l 500 723 q 620 723 675 711 q 730 700 771 667 q 852 602 852 469 q 852 264 728 132 q 604 0 412 0 z m 401 676 l 294 142 q 290 117 290 87 q 290 67 304 61 q 318 54 364 54 q 512 54 604 169 q 696 283 696 468 q 696 582 637 629 q 578 676 436 676 z"},"^":{"x_min":0,"x_max":636,"ha":636,"o":"m 436 561 l 177 193 l 91 193 l 462 723 l 622 193 l 546 193 z"},"0":{"x_min":0,"x_max":636,"ha":636,"o":"m 317 -18 q 214 -18 158 52 q 101 122 101 250 q 101 447 210 594 q 320 741 467 741 q 571 741 627 672 q 684 603 684 476 q 684 275 575 129 q 466 -18 317 -18 z m 540 546 q 540 696 459 696 q 371 696 309 521 q 245 341 245 176 q 245 27 325 27 q 414 27 477 202 q 540 380 540 546 z"},"F":{"x_min":0,"x_max":602,"ha":602,"o":"m 332 340 l 292 142 q 284 102 284 72 q 284 50 322 48 l 354 46 l 363 45 l 354 0 l 35 0 l 44 45 l 53 46 q 101 49 111 55 q 122 62 129 93 l 142 142 l 229 582 l 236 629 l 239 646 q 237 673 179 677 l 170 678 l 179 723 l 707 723 l 680 587 l 607 587 l 608 596 q 612 626 613 628 q 618 643 618 645 q 618 675 551 675 l 398 675 l 340 382 l 441 382 l 489 383 q 516 383 521 408 q 522 414 527 431 l 529 440 l 581 440 l 549 283 l 498 283 l 500 292 q 500 301 502 312 q 503 319 503 326 q 503 338 479 338 l 433 340 z"},"`":{"x_min":0,"x_max":618,"ha":618,"o":"m 525 626 l 460 626 l 303 783 l 446 783 z"},"k":{"x_min":0,"x_max":626,"ha":626,"o":"m 85 0 l 211 629 l 218 678 l 221 694 q 219 721 161 725 l 151 726 l 161 771 l 383 771 l 292 309 l 308 309 q 382 333 440 390 q 498 447 498 495 q 498 518 483 537 l 627 543 q 636 527 636 514 q 636 423 418 313 q 474 213 504 171 l 567 83 q 592 48 628 46 l 637 45 l 628 0 l 452 0 q 349 167 302 272 l 284 272 l 230 0 z"},"u":{"x_min":0,"x_max":655,"ha":655,"o":"m 420 0 l 465 225 q 409 115 336 51 q 264 -12 195 -12 q 157 -12 131 16 q 104 44 104 84 q 104 108 113 151 l 161 395 l 168 443 l 171 459 q 169 486 111 490 l 102 491 l 111 536 l 334 536 l 259 157 q 254 134 254 118 q 254 94 273 94 q 333 94 485 323 l 499 395 l 506 443 l 509 459 q 507 486 448 490 l 439 491 l 448 536 l 671 536 l 593 142 l 586 93 l 583 77 q 585 50 643 46 l 652 45 l 643 0 z"},"]":{"x_min":0,"x_max":336,"ha":336,"o":"m 422 771 l 240 -145 l 15 -145 l 25 -96 l 125 -96 l 289 723 l 188 723 l 197 771 z"},"U":{"x_min":0,"x_max":775,"ha":775,"o":"m 160 678 l 168 723 l 476 723 l 467 678 l 458 677 q 410 673 400 667 q 390 661 382 629 l 370 582 l 304 253 q 297 216 297 182 q 297 32 432 32 q 606 32 653 267 l 716 582 l 722 629 l 726 647 q 723 673 666 677 l 656 678 l 666 723 l 894 723 l 885 678 l 876 677 q 828 673 818 667 q 809 661 800 629 l 788 582 l 729 289 q 698 128 621 55 q 543 -18 406 -18 q 291 -18 220 39 q 149 96 149 190 q 149 232 161 288 l 219 582 l 226 629 l 229 647 q 226 674 169 677 q 166 677 160 678 z"},"o":{"x_min":0,"x_max":600,"ha":600,"o":"m 77 175 q 77 319 188 434 q 300 548 440 548 q 528 548 582 499 q 635 449 635 367 q 635 219 524 104 q 413 -12 271 -12 q 179 -12 128 38 q 77 87 77 175 z m 233 191 q 233 45 314 45 q 380 45 432 139 q 484 233 484 353 q 484 495 404 495 q 339 495 286 401 q 233 307 233 191 z"},"N":{"x_min":0,"x_max":797,"ha":797,"o":"m 681 -7 l 597 -7 l 297 548 l 216 142 l 209 93 l 206 77 q 209 50 267 46 l 275 45 l 266 0 l 35 0 l 44 45 l 53 46 q 101 49 111 55 q 121 62 129 93 l 142 142 l 229 582 l 236 629 l 239 647 q 236 673 179 677 l 170 678 l 179 723 l 358 723 l 646 183 l 726 581 l 732 629 l 735 646 q 733 673 675 677 l 667 678 l 675 723 l 905 723 l 896 678 l 887 677 q 838 673 829 667 q 819 661 811 629 l 798 582 z"},"+":{"x_min":0,"x_max":795,"ha":795,"o":"m 361 0 l 412 253 l 159 253 l 173 325 l 426 325 l 477 578 l 549 578 l 499 325 l 751 325 l 737 253 l 484 253 l 434 0 z"},"G":{"x_min":0,"x_max":780,"ha":780,"o":"m 673 32 q 550 -19 402 -19 q 266 -19 188 55 q 110 128 110 258 q 110 440 244 588 q 318 670 398 706 q 479 741 592 741 q 699 741 809 714 l 777 557 l 705 557 l 706 566 l 710 605 q 713 624 713 625 q 713 654 671 674 q 628 694 569 694 q 448 694 359 566 q 271 438 271 263 q 271 44 460 44 q 491 44 532 52 l 561 196 q 570 239 570 267 q 570 287 535 289 l 505 292 l 496 292 l 505 337 l 806 337 l 797 292 l 788 292 q 745 289 734 281 q 723 274 717 244 l 706 196 z"},"q":{"x_min":0,"x_max":629,"ha":629,"o":"m 507 -193 l 362 -193 l 446 226 q 396 121 320 54 q 245 -12 177 -12 q 130 -12 100 24 q 69 60 69 114 q 69 274 183 411 q 297 548 430 548 q 461 548 513 540 l 532 536 l 652 536 z m 465 320 l 495 465 q 444 495 400 495 q 312 495 260 349 q 215 225 215 144 q 215 95 250 95 q 312 95 455 306 z"},"d":{"x_min":0,"x_max":634,"ha":634,"o":"m 401 0 l 446 226 q 396 122 321 55 q 246 -12 177 -12 q 129 -12 99 24 q 69 61 69 117 q 69 198 109 288 q 148 378 213 445 q 313 546 435 546 q 463 546 508 539 l 526 629 l 533 678 l 536 694 q 534 721 476 725 l 467 726 l 476 771 l 699 771 l 573 142 l 566 93 l 563 77 q 565 50 624 46 l 632 45 l 624 0 z m 465 320 l 494 465 q 444 495 400 495 q 312 495 259 349 q 215 225 215 144 q 215 95 250 95 q 312 95 455 306 z"},"1":{"x_min":0,"x_max":636,"ha":636,"o":"m 542 729 l 425 142 q 417 101 417 74 q 417 50 472 50 l 523 46 l 533 45 l 523 0 l 126 0 l 135 45 l 144 46 l 201 51 q 237 53 246 58 q 255 63 264 85 q 275 116 281 142 l 361 545 l 368 594 l 372 612 q 368 628 342 628 q 333 628 285 620 l 248 613 l 257 661 z"},"5":{"x_min":0,"x_max":636,"ha":636,"o":"m 110 7 l 140 157 l 206 157 l 204 145 l 202 113 q 200 93 200 87 q 200 31 310 31 q 375 31 419 87 q 463 142 463 224 q 463 309 411 357 q 359 406 269 406 q 244 406 207 402 l 270 723 l 698 723 l 675 611 l 303 611 l 265 449 q 428 449 520 395 q 611 340 611 243 q 611 126 512 54 q 414 -18 253 -18 q 185 -18 110 7 z"}}}
